<?xml version="1.0" encoding="UTF-8"?>
<svg xmlns="http://www.w3.org/2000/svg" viewBox="0 0 545.34 600.71">
  <defs>
    <style>
      .cls-1 {
        stroke-width: .87px;
      }

      .cls-1, .cls-2 {
        fill: none;
        stroke: #bbd531;
      }

      .cls-3 {
        isolation: isolate;
      }

      .cls-4 {
        mix-blend-mode: multiply;
        opacity: .06;
      }

      .cls-5 {
        opacity: .14;
      }
    </style>
  </defs>
  <g class="cls-3">
    <g id="Publicdomainvectors.org">
      <g class="cls-5">
        <path class="cls-2" d="M6.55,.27c31.2,66.47,68.89,134.96,96.39,204.17,22.41,56.44,37.61,112.42,38.94,158.85,1.28,45.77-10.65,83.13-26.96,113.83-16.21,30.5-35.46,53.76-45.64,83.85-3.82,11.3-5.61,24.66-5.32,39.3"/>
        <path class="cls-2" d="M19.39,.27c31.64,68.99,69.53,139.49,95.66,210.65,20.46,55.75,32.74,111.04,30.86,155.32-1.92,44.62-17.25,79.33-36,108.42-18.49,28.62-39,50.52-49.01,80.53-4.16,12.51-5.39,27.97-3.83,45.08"/>
        <path class="cls-2" d="M31.57,.27c32.57,71.78,70.93,144.36,95.69,217.48,18.65,55.14,28,109.7,22.98,151.84-5.18,43.37-23.82,75.49-45.06,102.91-20.7,26.75-42.51,47.24-52.34,77.13-4.45,13.56-4.91,31.1-1.85,50.63"/>
        <path class="cls-2" d="M43,.27c33.98,74.79,73.05,149.54,96.43,224.55,17,54.62,23.4,108.38,15.36,148.43-8.47,42.03-30.34,71.57-54.07,97.34-22.88,24.82-45.98,43.94-55.63,73.7-4.68,14.48-4.18,34.08,.55,55.97"/>
        <path class="cls-2" d="M53.58,.27c35.83,77.97,75.89,154.98,97.88,231.77,15.49,54.18,18.96,107.06,8.01,145.12-11.75,40.62-36.76,67.66-62.98,91.77-24.98,22.94-49.37,40.64-58.84,70.26-4.88,15.29-3.23,36.91,3.3,61.08"/>
        <path class="cls-2" d="M63.3,.27c38.07,81.27,79.35,160.63,99.96,239.06,14.12,53.83,14.73,105.78,.95,141.91-14.98,39.16-43.03,63.79-71.73,86.22-27,21.1-52.67,37.38-61.97,66.84-5.03,16-2.12,39.61,6.29,65.97"/>
        <path class="cls-2" d="M72.14,.27c40.63,84.63,83.36,166.41,102.63,246.35,12.87,53.57,10.69,104.51-5.79,138.81-18.15,37.66-49.13,60-80.27,80.74-28.96,19.3-55.86,34.18-64.99,63.47-5.15,16.62-.85,42.17,9.49,70.63"/>
        <path class="cls-2" d="M80.13,.27c43.43,87.99,87.83,172.27,105.77,253.57,11.75,53.37,6.85,103.27-12.22,135.83-21.23,36.15-55.06,56.25-88.57,75.36-30.82,17.56-58.92,31.05-67.88,60.17-5.24,17.17,.54,44.6,12.8,75.06"/>
        <path class="cls-2" d="M87.3,.27c46.4,91.32,92.65,178.13,109.32,260.67,10.72,53.24,3.24,102.06-18.32,132.98-24.19,34.65-60.76,52.65-96.58,70.12-16.89,8.22-32.67,15.78-45.79,25.26-11.59,8.4-20.77,18.22-24.85,31.7-5.32,17.64,2,46.9,16.19,79.26"/>
        <path class="cls-2" d="M93.72,.27c14.01,26.87,28.09,53.75,41.61,80.85,32.65,65.44,61.02,129.69,71.55,186.76,9.78,53.15-.17,100.88-24.1,130.26-27.04,33.17-66.23,49.16-104.27,65.04-17.8,7.44-34.32,14.27-47.96,23.23-11.94,7.86-21.33,17.3-25.31,30.64-5.37,18.07,3.53,49.07,19.59,83.22"/>
        <path class="cls-2" d="M2.92,551.62c4.23,14.63,11.17,31.27,19.83,48.65"/>
        <path class="cls-2" d="M99.33,.27c15.46,28.87,30.91,57.7,45.66,86.77,33.42,65.89,62.08,130.77,71.66,187.54,8.93,53.11-3.37,99.75-29.54,127.68-29.77,31.71-71.43,45.83-111.61,60.14-18.67,6.68-35.89,12.79-50.01,21.27-9.71,5.83-17.73,12.73-22.58,21.9"/>
        <path class="cls-2" d="M2.92,561.12c4.67,12.23,10.84,25.48,18,39.15"/>
        <path class="cls-2" d="M104.31,.27c16.91,30.79,33.74,61.49,49.69,92.44,34.17,66.33,63.18,131.85,71.89,188.34,8.15,53.1-6.35,98.67-34.65,125.24-32.35,30.3-76.37,42.63-118.57,55.46-19.5,5.93-37.35,11.42-51.93,19.41-6.99,3.83-13.11,8.23-17.82,13.63"/>
        <path class="cls-2" d="M2.92,567.29c4.63,10.5,10.2,21.61,16.42,32.98"/>
        <path class="cls-2" d="M108.73,.27c18.35,32.62,36.53,65.09,53.65,97.82,34.91,66.75,64.28,132.89,72.2,189.12,7.44,53.11-9.12,97.65-39.42,122.94-34.77,28.97-81.03,39.6-125.13,51.02-20.27,5.23-38.73,10.13-53.74,17.65-4.95,2.49-9.47,5.26-13.37,8.47"/>
        <path class="cls-2" d="M2.92,571.8c4.45,9.17,9.52,18.73,15.03,28.47"/>
        <path class="cls-2" d="M112.62,.27c19.76,34.35,39.25,68.49,57.51,102.91,35.61,67.16,65.36,133.9,72.56,189.87,6.8,53.15-11.69,96.67-43.87,120.78-37.04,27.7-85.38,36.76-131.28,46.83-20.98,4.6-40,8.91-55.41,16-3.28,1.51-6.37,3.15-9.22,4.96"/>
        <path class="cls-2" d="M2.92,575.24c4.21,8.12,8.87,16.52,13.84,25.04"/>
        <path class="cls-2" d="M116.05,.27c21.12,35.98,41.87,71.68,61.21,107.67,36.27,67.53,66.39,134.84,72.94,190.58,6.21,53.2-14.05,95.78-47.97,118.78-39.14,26.5-89.42,34.1-136.98,42.91-21.64,4.01-41.18,7.76-56.95,14.46-1.86,.79-3.66,1.62-5.4,2.5"/>
        <path class="cls-2" d="M2.92,578.69c3.96,6.99,8.23,14.17,12.74,21.58"/>
        <path class="cls-2" d="M119.05,.27c22.41,37.5,44.37,74.65,64.73,112.1,36.89,67.88,67.36,135.72,73.33,191.24,2.83,26.51-.33,50.93-8.78,69.73-9.21,20.47-24.39,35.7-42.96,47.2-41.08,25.38-93.14,31.66-142.23,39.28-22.24,3.46-42.23,6.75-58.35,13.04-.63,.25-1.26,.5-1.88,.76"/>
        <path class="cls-2" d="M2.92,580.66c3.74,6.36,7.71,12.89,11.88,19.61"/>
        <path class="cls-2" d="M121.66,.27c23.63,38.9,46.72,77.39,68.03,116.18,37.45,68.18,68.27,136.53,73.7,191.84,2.59,26.49-1.05,50.72-10.04,69.2-9.85,20.21-25.76,35.01-45.12,46.03-42.86,24.35-96.54,29.41-147.01,35.96-22.19,2.88-42.13,5.64-58.32,11.28"/>
        <path class="cls-2" d="M2.92,582.24c3.54,5.86,7.26,11.87,11.14,18.03"/>
        <path class="cls-2" d="M123.91,.27c24.76,40.17,48.88,79.87,71.08,119.88,37.96,68.47,69.09,137.25,74.06,192.39,2.36,26.46-1.7,50.55-11.17,68.72-10.42,19.98-26.99,34.39-47.06,44.98-44.44,23.44-99.6,27.36-151.31,32.94-21.38,2.28-40.66,4.54-56.59,9.26"/>
        <path class="cls-2" d="M2.92,583.53c3.36,5.45,6.87,11.03,10.52,16.74"/>
        <path class="cls-2" d="M125.84,.27c25.78,41.31,50.85,82.09,73.83,123.19,38.41,68.71,69.81,137.91,74.38,192.87,2.18,26.45-2.27,50.38-12.16,68.31-10.92,19.79-28.1,33.81-48.79,44.04-45.85,22.6-102.3,25.58-155.13,30.27-20.67,1.84-39.38,3.66-55.05,7.64"/>
        <path class="cls-2" d="M2.92,584.56c3.21,5.12,6.55,10.36,10,15.71"/>
        <path class="cls-2" d="M127.46,.27c26.69,42.31,52.59,84.05,76.27,126.09,38.8,68.93,70.45,138.47,74.66,193.29,2.01,26.43-2.77,50.23-13.03,67.94-11.37,19.6-29.05,33.33-50.29,43.21-47.07,21.88-104.66,24-158.45,27.92-20.07,1.45-38.29,2.92-53.71,6.34"/>
        <path class="cls-2" d="M2.92,585.39c3.08,4.86,6.28,9.82,9.57,14.88"/>
        <path class="cls-2" d="M128.8,.27c27.47,43.17,54.1,85.71,78.38,128.58,39.13,69.11,71,138.96,74.91,193.64,1.87,26.41-3.2,50.09-13.76,67.62-11.75,19.44-29.87,32.91-51.57,42.51-48.12,21.26-106.67,22.66-161.27,25.93-19.56,1.18-37.36,2.37-52.57,5.33"/>
        <path class="cls-2" d="M2.92,586.04c2.98,4.65,6.06,9.39,9.23,14.23"/>
        <path class="cls-2" d="M129.88,.27c28.13,43.88,55.35,87.09,80.13,130.63,39.41,69.26,71.43,139.35,75.11,193.93,1.76,26.41-3.54,50-14.37,67.37-12.06,19.32-30.53,32.55-52.62,41.93-48.97,20.75-108.31,21.54-163.59,24.28-19.15,.94-36.61,1.93-51.63,4.55"/>
        <path class="cls-2" d="M2.92,586.52c2.9,4.5,5.9,9.08,8.97,13.75"/>
        <path class="cls-2" d="M130.69,.27c28.64,44.44,56.34,88.17,81.52,132.23,39.61,69.37,71.79,139.66,75.27,194.16,1.66,26.39-3.81,49.92-14.84,67.16-12.3,19.22-31.05,32.3-53.43,41.48-49.65,20.34-109.59,20.71-165.39,23-18.83,.79-36.04,1.61-50.9,3.97"/>
        <path class="cls-2" d="M2.92,586.86c2.85,4.39,5.78,8.86,8.79,13.41"/>
        <path class="cls-2" d="M131.28,.27c29.01,44.84,57.05,88.95,82.51,133.39,39.77,69.45,72.05,139.89,75.38,194.32,1.61,26.4-4.01,49.84-15.17,67.02-12.48,19.14-31.42,32.12-54.02,41.15-50.11,20.08-110.51,20.06-166.68,22.08-18.61,.65-35.62,1.38-50.38,3.57"/>
        <path class="cls-2" d="M2.92,587.06c2.81,4.32,5.71,8.72,8.68,13.21"/>
        <path class="cls-2" d="M131.62,.27c29.24,45.08,57.49,89.41,83.11,134.08,39.86,69.5,72.19,140.01,75.45,194.41,1.56,26.39-4.12,49.82-15.37,66.93-12.58,19.1-31.65,31.98-54.37,40.95-50.41,19.88-111.06,19.7-167.45,21.53-18.47,.6-35.37,1.26-50.06,3.35"/>
      </g>
      <g class="cls-4">
        <path class="cls-1" d="M545.3,506.5c-25.94-2.4-51.5-5.44-76.46-9.42-97.41-15.6-183.87-45.4-239.26-93.14-54.56-47.14-80.33-112.11-92.08-178.79-11.67-66.27-10.6-130.85-30.53-184.37-5.41-14.49-13.57-27.99-24.18-40.13"/>
        <path class="cls-1" d="M545.3,529.65c-34.67-3.6-68.68-8.31-101.46-14.88-93.79-18.82-175.24-53.84-223.5-105.81-48.6-52.41-66.4-121.46-72.76-191.38-6.21-68.87-1.75-134.57-21.83-187.62-3.96-10.43-9.62-20.24-16.8-29.31"/>
        <path class="cls-1" d="M545.3,553.38c-43.77-4.81-86.46-11.34-126.98-21.1-90.48-21.84-166.83-62.07-208.1-118.12-42.44-57.72-52.47-130.69-53.32-203.89-.86-71.34,7.1-138.18-13.09-190.75-2.54-6.59-5.87-12.89-9.94-18.87"/>
        <path class="cls-1" d="M545.3,577.17c-53.22-5.91-104.76-14.24-152.73-27.73-87.48-24.65-158.66-70.02-193.15-129.99-36.15-62.98-38.53-139.75-33.86-216.24,4.51-73.7,15.92-141.66-4.39-193.73-1.18-3.02-2.55-5.96-4.1-8.83"/>
        <path class="cls-1" d="M543.26,600.27c-62.26-6.73-122.04-16.68-176.41-34.11-84.8-27.26-150.72-77.65-178.69-141.39-29.77-68.15-24.73-148.61-14.55-228.38,9.67-75.55,24.48-144.28,4.54-195.74"/>
        <path class="cls-1" d="M402,600.27c-20.92-5.04-41.18-10.94-60.62-17.92-82.42-29.69-143.11-84.91-164.79-152.31-23.43-73.16-11.2-157.22,4.49-240.22C194.91,116.74,211.89,50.65,197.24,.65"/>
        <path class="cls-1" d="M322.43,600.27c-2.04-.77-4.06-1.56-6.08-2.36-80.31-31.94-135.82-91.78-151.46-162.72-17.11-78,1.99-165.56,23.16-251.7C205.38,112.91,224.35,49.32,214.59,.65"/>
        <path class="cls-1" d="M266.65,600.27c-63.96-36-104.67-94.05-113.47-160.07-10.92-82.65,14.88-173.6,41.36-262.8C214.76,109.3,235.52,48.07,230.21,.65"/>
        <path class="cls-1" d="M224.12,600.27c-49.95-38.36-79.03-93.91-82.52-155.26-4.89-87.07,27.28-181.31,58.99-273.46,14.97-43.42,29.1-83.88,37.16-120.98,3.85-17.79,6.19-34.59,5.99-49.91"/>
        <path class="cls-1" d="M189.56,600.27c-39.3-39.55-59.87-92.92-59.32-150.67,.94-91.28,39.21-188.69,75.96-283.64,17.2-44.44,33.22-85.6,42.64-123.19,3.71-14.85,6.29-28.99,7.14-42.12"/>
        <path class="cls-1" d="M160.56,600.27c-30.95-40.06-45.05-91.49-41.33-146.34,6.56-95.26,50.57-195.69,92.22-293.31,19.32-45.39,37.19-87.2,47.85-125.25,3.4-12.12,6.01-23.75,7.47-34.72"/>
        <path class="cls-1" d="M135.71,600.27c-24.28-40.16-33.33-89.84-27.07-142.27,11.9-99,61.41-202.31,107.68-302.45,21.38-46.27,40.89-88.71,52.79-127.16,2.96-9.59,5.41-18.87,7.16-27.75"/>
        <path class="cls-1" d="M114.16,600.27c-18.87-40.01-23.93-88.11-15.63-138.48,16.95-102.5,71.63-208.53,122.3-311.01,23.3-47.09,44.37-90.1,57.42-128.93,2.44-7.26,4.57-14.34,6.31-21.2"/>
        <path class="cls-1" d="M95.36,600.27c-14.46-39.7-16.31-86.39-6.37-134.99,21.68-105.75,81.2-214.32,136-319,25.06-47.86,47.6-91.37,61.74-130.54,1.85-5.13,3.54-10.16,5.04-15.09"/>
        <path class="cls-1" d="M78.88,600.27c-10.84-39.3-10.11-84.73,1.17-131.8,26.11-108.74,90.11-219.7,148.76-326.38,26.69-48.55,50.63-92.53,65.74-132.02,1.22-3.18,2.37-6.32,3.46-9.42"/>
        <path class="cls-1" d="M61.77,600.27c-7.26-38.67-2.51-82.56,10.01-128.9,30.21-111.49,98.29-224.64,160.54-333.16,28.2-49.18,53.33-93.59,69.41-133.34,.57-1.41,1.13-2.82,1.67-4.22"/>
        <path class="cls-1" d="M49.26,600.27c-4.74-38.25,1.52-81.15,14.93-126.3,33.96-113.99,105.81-229.13,171.29-339.31,29.44-49.54,55.62-94.15,72.52-134.01"/>
        <path class="cls-1" d="M38.4,600.27c-2.7-37.83,4.77-79.86,18.94-123.99,37.29-116.23,112.58-233.15,180.98-344.83,29.61-48.27,55.93-91.8,73.59-130.8"/>
        <path class="cls-1" d="M29.05,600.27c-1.03-37.43,7.48-78.7,22.2-121.98,40.32-118.2,118.55-236.73,189.58-349.71,29.63-47.15,56.07-89.72,74.36-127.93"/>
        <path class="cls-1" d="M21.12,600.27c.3-37.07,9.59-77.71,24.8-120.25,42.91-119.92,123.78-239.84,197.09-353.95,29.69-46.15,56.18-87.88,74.92-125.42"/>
        <path class="cls-1" d="M14.52,600.27c1.38-36.75,11.29-76.86,26.87-118.79,45.15-121.38,128.23-242.47,203.47-357.54,29.62-45.33,56.16-86.34,75.3-123.29"/>
        <path class="cls-1" d="M9.19,600.27c2.2-36.49,12.63-76.16,28.49-117.62,46.96-122.57,131.9-244.62,208.71-360.48,29.61-44.63,56.13-85.06,75.54-121.53"/>
        <path class="cls-1" d="M5.08,600.27c2.81-36.28,13.6-75.63,29.69-116.71,48.4-123.5,134.71-246.32,212.8-362.76,29.54-44.1,56.07-84.06,75.69-120.15"/>
        <path class="cls-1" d="M2.17,600.27c3.24-36.13,14.26-75.25,30.52-116.06,49.38-124.17,136.78-247.5,215.72-364.4,29.55-43.7,56.03-83.34,75.78-119.16"/>
        <path class="cls-1" d="M.43,600.27c3.5-36.04,14.69-75.01,31.01-115.67,50.04-124.57,138-248.23,217.48-365.38,29.49-43.48,55.97-82.92,75.81-118.57"/>
      </g>
    </g>
  </g>
</svg>