<?xml version="1.0" encoding="UTF-8"?>
<svg id="Layer_1" data-name="Layer 1" xmlns="http://www.w3.org/2000/svg" viewBox="0 0 767.82 1735.86">
  <defs>
    <style>
      .cls-1 {
        opacity: .06;
      }

      .cls-2 {
        fill: none;
        stroke: #bbd531;
        stroke-width: .87px;
      }
    </style>
  </defs>
  <g id="Publicdomainvectors.org">
    <g class="cls-1">
      <path class="cls-2" d="M.08,271.48c36.5,7.08,72.4,15.98,107.5,27.61,136.9,45.51,258.3,132.09,335.7,270.25,76.3,136.54,112,324.46,127.9,517.23,15.8,191.56,13.7,378.27,41.3,533.01,7.5,41.87,18.8,81.01,33.7,116.11"/>
      <path class="cls-2" d="M.28,204.63c48.7,10.52,96.5,24.37,142.6,43.49,131.8,54.82,246,156.36,313.5,306.86,67.9,151.71,92.3,351.36,100.6,553.54,8.1,199.15,1.3,388.99,29,542.42,5.5,30.14,13.4,58.56,23.4,84.76"/>
      <path class="cls-2" d="M.48,135.95c61.5,14.06,121.5,33.17,178.4,61.59,127.1,63.52,234.2,180.13,291.7,342.36,59.2,166.98,72.6,377.96,73.2,589.55,.6,206.23-11.2,399.4,16.7,551.42,3.5,19.01,8.1,37.32,13.8,54.62"/>
      <path class="cls-2" d="M.68,67.28c74.8,17.3,147.3,41.57,214.6,80.81,122.8,71.61,222.6,203.09,270.5,376.65,50.3,182.15,52.9,404.16,45.7,625.15-7,213-23.7,409.42,4.4,560.02,1.6,8.7,3.5,17.19,5.7,25.59"/>
      <path class="cls-2" d="M3.78,.42C91.28,20.15,175.28,49.17,251.68,99.85c119,79.19,211.3,225.14,250.1,409.52,41.3,197.12,33.5,429.65,18.4,660.14-14.3,218.36-35.7,416.9-8.1,565.78"/>
      <path class="cls-2" d="M202.48,1.13c29.4,14.67,57.9,31.76,85.1,52.09,115.7,86.17,200.6,246.07,230.5,440.97,32.3,211.59,14.3,454.53-8.5,694.33-20.1,211.18-44.6,402.13-24.4,546.77"/>
      <path class="cls-2" d="M314.48,1.44c2.9,2.23,5.7,4.55,8.5,6.88,112.7,92.64,190.2,265.9,211.6,471.01,23.4,225.54-4.3,478.5-34.8,727.4-25,203.9-52.3,387.67-39,528.36"/>
      <path class="cls-2" d="M392.88,1.74c89.7,104.28,146.4,272.27,158.2,463.12,14.6,239-22.5,501.76-60.5,759.46-29.1,196.72-58.8,373.61-51.8,510.76"/>
      <path class="cls-2" d="M452.78,1.94c69.9,111.05,110.3,271.76,114.6,449.06,6.1,251.74-40,523.91-85.4,790.21-21.4,125.41-41.7,242.33-53.4,349.54-5.6,51.38-9,99.93-8.9,144.23"/>
      <path class="cls-2" d="M501.38,2.04c54.9,114.49,83.4,268.83,82.1,435.81-2.1,263.88-56.9,545.25-109.4,819.54-24.6,128.35-47.5,247.29-61.1,355.91-5.4,42.88-9.1,83.74-10.4,121.67"/>
      <path class="cls-2" d="M542.18,2.14c43.2,115.91,62.6,264.68,56.8,423.17-10.1,275.3-72.9,565.38-132.4,847.36-27.6,131.08-53.1,251.84-68.4,361.78-4.9,34.99-8.7,68.57-10.8,100.33"/>
      <path class="cls-2" d="M577.08,2.24c33.8,116.21,46.1,259.83,36.8,411.34-17.6,286.13-88.2,584.49-154.2,873.75-30.5,133.61-58.3,256.19-75.4,367.34-4.3,27.71-7.8,54.51-10.3,80.2"/>
      <path class="cls-2" d="M607.38,2.35c26.2,115.7,32.9,254.77,20.7,400.31-24.8,296.24-102.6,602.39-174.8,898.43-33.2,136.03-63.2,260.23-81.9,372.4-3.5,20.94-6.6,41.47-9.1,61.29"/>
      <path class="cls-2" d="M633.88,2.45c20,114.79,22.2,249.82,7.7,390.2-31.4,305.55-116.2,619.08-194.2,921.49-35.7,138.26-67.8,263.88-88,377.05-2.6,14.87-5.1,29.33-7.2,43.59"/>
      <path class="cls-2" d="M657.08,2.55c14.9,113.68,13.5,244.96-2.8,381-37.7,314.24-128.7,634.66-212.2,942.73-38,140.18-72.1,267.21-93.7,381.3-1.7,9.2-3.4,18.31-5,27.21"/>
      <path class="cls-2" d="M681.08,2.65c9.9,111.76,2.8,238.69-15.2,372.5-43.5,322.13-140.3,648.92-228.8,962.25-40.1,142-75.9,270.25-98.8,385.14-.8,4.05-1.6,8.19-2.4,12.24"/>
      <path class="cls-2" d="M698.68,2.65c6.3,110.55-2.9,234.54-22.1,365.02-48.8,329.31-150.9,661.86-244,980.05-41.9,143.01-79.1,271.87-103.2,387.07"/>
      <path class="cls-2" d="M713.98,2.75c3.5,109.33-7.4,230.8-27.8,358.34-53.5,335.79-160.5,673.39-257.7,995.93-42.1,139.37-79.5,265.09-104.7,377.76"/>
      <path class="cls-2" d="M727.18,2.75c1.1,108.22-11.2,227.47-32.3,352.47-57.8,341.45-168.9,683.71-269.8,1009.99-42.1,136.14-79.7,259.12-105.8,369.47"/>
      <path class="cls-2" d="M738.28,2.85c-.8,107.11-14.2,224.53-36,347.52-61.4,346.41-176.3,692.71-280.4,1022.23-42.2,133.3-79.8,253.76-106.5,362.18"/>
      <path class="cls-2" d="M747.58,2.85c-2.3,106.2-16.6,222.1-38.9,343.27-64.6,350.65-182.6,700.3-289.4,1032.54-42.1,130.88-79.8,249.31-107,356.01"/>
      <path class="cls-2" d="M755.08,2.85c-3.4,105.49-18.5,220.08-41.1,339.83-67.2,354.09-187.7,706.47-296.8,1041.04-42.1,128.85-79.7,245.57-107.4,350.96"/>
      <path class="cls-2" d="M760.88,2.85c-4.3,104.88-19.8,218.56-42.8,337.2-69.2,356.82-191.7,711.42-302.6,1047.61-42,127.34-79.6,242.74-107.6,346.91"/>
      <path class="cls-2" d="M764.98,2.85c-4.9,104.38-20.7,217.45-44,335.38-70.6,358.64-194.6,714.76-306.7,1052.37-42,126.22-79.6,240.61-107.7,344.08"/>
      <path class="cls-2" d="M767.38,2.85c-5.2,104.17-21.3,216.74-44.7,334.17-71.5,359.86-196.4,716.88-309.2,1055.2-41.9,125.52-79.5,239.4-107.7,342.36"/>
    </g>
  </g>
</svg>