<?xml version="1.0" encoding="utf-8"?>
<!-- Generator: Adobe Illustrator 27.0.0, SVG Export Plug-In . SVG Version: 6.00 Build 0)  -->
<svg version="1.1" id="Layer_1" xmlns="http://www.w3.org/2000/svg" xmlns:xlink="http://www.w3.org/1999/xlink" x="0px" y="0px"
	 viewBox="0 0 767.8 1735.9" style="enable-background:new 0 0 767.8 1735.9;" xml:space="preserve">
<style type="text/css">
	.st0{opacity:6.000000e-02;}
	.st1{fill:none;stroke:#BBD531;stroke-width:6;}
</style>
<g id="Publicdomainvectors.org">
	<g class="st0">
		<path class="st1" d="M-6994.2-3956.2c679.5,57.3,1347.9,129.2,2001.4,223.3c2548.7,368,4808.9,1068.1,6249.9,2185.3
			C2677.6-443.5,3342.2,1076.1,3638.2,2634.9c294.2,1549,255.1,3058.8,768.9,4310.1c139.6,338.6,350,655.1,627.4,938.9"/>
		<path class="st1" d="M-6990.5-4496.7c906.7,85.1,1796.6,197.1,2654.8,351.7c2453.8,443.3,4579.9,1264.4,5836.6,2481.4
			C2765.1-436.9,3219.3,1177.5,3373.9,2812.4c150.8,1610.4,24.2,3145.5,539.9,4386.1c102.4,243.7,249.5,473.5,435.6,685.4"/>
		<path class="st1" d="M-6986.7-5052.1c1145,113.7,2262,268.2,3321.3,498c2366.3,513.6,4360.2,1456.6,5430.7,2768.4
			C2867.5-435.4,3116.9,1270.6,3128.1,2981.6c11.2,1667.6-208.5,3229.7,310.9,4458.9c65.2,153.7,150.8,301.8,256.9,441.7"/>
		<path class="st1" d="M-6983-5607.4c1392.6,139.9,2742.3,336.1,3995.3,653.5c2286.2,579.1,4144.2,1642.2,5036,3045.7
			c936.5,1472.9,984.9,3268.1,850.8,5055.1c-130.3,1722.4-441.2,3310.7,81.9,4528.5c29.8,70.4,65.2,139,106.1,206.9"/>
		<path class="st1" d="M-6925.3-6148c1629,159.5,3192.9,394.2,4615.3,804c2215.5,640.4,3933.9,1820.5,4656.2,3311.5
			c768.9,1594,623.7,3474.3,342.6,5338.1c-266.2,1765.7-664.6,3371.2-150.8,4575"/>
		<path class="st1" d="M-3226-6142.3c547.4,118.6,1077.9,256.8,1584.3,421.2c2154,696.8,3734.7,1989.8,4291.3,3565.8
			c601.3,1711,266.2,3675.4-158.2,5614.5c-374.2,1707.7-830.3,3251.7-454.3,4421.3"/>
		<path class="st1" d="M-1140.9-6139.8c54,18,106.1,36.8,158.2,55.6C1115.6-5335,2558.4-3934,2956.8-2275.4
			c435.6,1823.8-80.1,3869.3-647.9,5881.9c-465.4,1648.8-973.7,3134.8-726.1,4272.5"/>
		<path class="st1" d="M318.7-6137.4c1670,843.2,2725.6,2201.6,2945.3,3744.9c271.8,1932.6-418.9,4057.4-1126.4,6141.2
			C1595.9,5339.5,1043,6769.9,1173.3,7878.9"/>
		<path class="st1" d="M1433.9-6135.7c1301.4,898,2053.5,2197.5,2133.6,3631.2C3681-468.9,2822.8,1731.9,1977.6,3885.3
			c-398.4,1014.1-776.3,1959.5-994.2,2826.5c-104.3,415.5-167.6,808.1-165.7,1166.3"/>
		<path class="st1" d="M2338.7-6134.9c1022.1,925.8,1552.7,2173.8,1528.5,3524.1c-39.1,2133.8-1059.3,4409-2036.7,6627
			C1372.5,5054,946.1,6015.8,693,6894.1c-100.5,346.7-169.4,677.1-193.6,983.9"/>
		<path class="st1" d="M3098.3-6134.1c804.3,937.3,1165.4,2140.3,1057.5,3421.9c-188,2226.1-1357.2,4571.8-2464.9,6852
			C1177,5199.7,702.3,6176.2,417.4,7065.2c-91.2,282.9-162,554.5-201.1,811.3"/>
		<path class="st1" d="M3748.1-6133.3c629.3,939.7,858.3,2101.1,685.1,3326.2C4105.5-493.4,2791.1,1919.2,1562.4,4258.3
			C994.6,5338.7,477,6329.9,158.6,7228.7c-80.1,224.1-145.2,440.8-191.8,648.5"/>
		<path class="st1" d="M4312.2-6132.4c487.8,935.6,612.5,2060.1,385.4,3237C4235.8-499.9,2787.4,1975.7,1443.2,4369.5
			C825.1,5469.5,266.6,6473.8-81.5,7380.8c-65.2,169.3-122.9,335.3-169.4,495.6"/>
		<path class="st1" d="M4805.5-6131.6c372.3,928.2,413.3,2020.1,143.4,3155.3C4364.3-505.6,2785.5,2029.7,1333.4,4475
			C668.7,5593.1,71.1,6608.9-304.9,7524c-48.4,120.2-94.9,237.2-134,352.5"/>
		<path class="st1" d="M5237.5-6130.8c277.4,919.2,251.3,1980.8-52.1,3080.9c-701.9,2541-2396.1,5132-3950.6,7623.2
			C527.3,5706.7-107.6,6733.9-509.7,7656.5c-31.6,74.4-63.3,148.1-93.1,220"/>
		<path class="st1" d="M5684.3-6130c184.3,903.7,52.1,1930.1-283,3012.1c-809.9,2604.8-2612,5247.3-4259.7,7781
			C395.1,5811.4-271.4,6848.4-697.8,7777.5c-14.9,32.8-29.8,66.2-44.7,99"/>
		<path class="st1" d="M6011.9-6130c117.3,893.9-54,1896.6-411.4,2951.6C4692-515.5,2791.1,2173.6,1057.9,4746.6
			C277.8,5903-414.8,6945-863.5,7876.5"/>
		<path class="st1" d="M6296.8-6129.2c65.2,884.1-137.8,1866.3-517.6,2897.6c-996,2715.3-2988.1,5445.2-4797.7,8053.4
			C197.7,5948.8-498.6,6965.4-967.7,7876.5"/>
		<path class="st1" d="M6542.5-6129.2C6563-5254.1,6334-4289.8,5941.2-3279C4865.1-518,2796.7,2249.6,918.2,4888
			C134.4,5988.9-565.6,6983.3-1051.5,7875.6"/>
		<path class="st1" d="M6749.2-6128.4c-14.9,866.1-264.4,1815.6-670.2,2810.1C4935.9-517.1,2796.7,2283.2,858.6,4947.8
			C73,6025.7-627,6999.7-1124.1,7876.5"/>
		<path class="st1" d="M6922.3-6128.4c-42.8,858.8-309,1796-724.2,2775.8C4995.4-517.2,2798.6,2310.2,810.2,4996.8
			C26.4,6055.1-675.4,7012.8-1181.8,7875.6"/>
		<path class="st1" d="M7062-6128.4c-63.3,853-344.4,1779.6-765.2,2748C5045.7-517.2,2802.3,2332.3,771.1,5037.7
			c-783.8,1041.9-1483.8,1985.7-1999.5,2838"/>
		<path class="st1" d="M7169.9-6128.4c-80.1,848.1-368.6,1767.3-796.8,2726.7C5084.8-516.4,2804.2,2351,739.5,5069.6
			C-42.4,6099.3-742.5,7032.4-1263.7,7874.8"/>
		<path class="st1" d="M7246.3-6128.4c-91.2,844-385.4,1758.4-819.2,2712C5112.7-516.4,2804.2,2363.3,717.2,5093.3
			C-64.8,6114-764.8,7039-1287.9,7875.6"/>
		<path class="st1" d="M7291-6128.4c-96.8,842.3-396.6,1752.6-832.2,2702.2C5127.6-516.3,2802.3,2370.7,702.3,5106.4
			c-780.1,1015-1480.1,1935.9-2005.1,2768.4"/>
	</g>
</g>
</svg>
