<?xml version="1.0" encoding="UTF-8"?>
<svg id="Layer_1" data-name="Layer 1" xmlns="http://www.w3.org/2000/svg" viewBox="0 0 767.57 1219.33">
  <defs>
    <style>
      .cls-1 {
        opacity: .06;
      }

      .cls-2 {
        fill: none;
        stroke: #bbd531;
        stroke-width: .87px;
      }
    </style>
  </defs>
  <g id="Publicdomainvectors.org">
    <g class="cls-1">
      <path class="cls-2" d="M.06,190.52c36.48,4.98,72.41,11.26,107.5,19.43,136.93,32.06,258.37,92.85,335.98,189.88,76.45,95.81,112.29,227.63,128.39,362.87,15.99,134.4,14.08,265.32,41.77,373.91,7.52,29.4,18.91,56.8,33.76,81.46"/>
      <path class="cls-2" d="M.21,143.59c48.75,7.45,96.56,17.15,142.63,30.61,131.82,38.57,246.17,109.92,313.73,215.49,68.03,106.46,92.63,246.53,101.13,388.3,8.3,139.65,1.6,272.82,29.51,380.46,5.5,21.16,13.4,41.07,23.45,59.49"/>
      <path class="cls-2" d="M.36,95.48c61.54,9.94,121.55,23.37,178.49,43.34,127.14,44.68,234.29,126.57,291.99,240.38,59.33,117.2,72.98,265.18,73.71,413.58,.76,144.63-10.87,280.1,17.2,386.76,3.53,13.37,8.18,26.16,13.86,38.3"/>
      <path class="cls-2" d="M.51,47.25c74.83,12.22,147.28,29.33,214.67,56.89,122.9,50.36,222.75,142.65,270.88,264.38,50.45,127.84,53.31,283.48,46.25,438.53-6.81,149.39-23.3,287.12,4.94,392.77,1.64,6.13,3.55,12.09,5.71,17.92"/>
      <path class="cls-2" d="M3.53,.43C91.07,14.35,175.1,34.78,251.47,70.36c119.12,55.64,211.53,158.08,250.47,287.43,41.44,138.29,33.84,301.38,19.01,463.06-14.08,153.12-35.36,292.39-7.63,396.8"/>
      <path class="cls-2" d="M202.24,1.05c29.4,10.31,57.86,22.36,85.16,36.6,115.75,60.55,200.78,172.77,230.84,309.5,32.49,148.42,14.75,318.78-7.85,486.98-19.92,148.09-44.23,282-23.94,383.43"/>
      <path class="cls-2" d="M314.17,1.41c2.86,1.57,5.7,3.18,8.54,4.81,112.77,65.11,190.48,186.66,212.03,330.55,23.57,158.2-3.85,335.63-34.18,510.17-24.83,143.01-51.92,271.84-38.5,370.55"/>
      <path class="cls-2" d="M392.64,1.65c89.75,73.26,146.64,191.13,158.6,325.01,14.84,167.6-22.04,351.87-59.86,532.59-28.88,137.97-58.47,262.01-51.3,358.17"/>
      <path class="cls-2" d="M452.47,1.84c70.02,77.99,110.58,190.73,115.09,315.12,6.32,176.54-39.53,367.45-84.72,554.12-21.34,87.96-41.47,169.92-53.04,245.1-5.53,36.05-8.93,70.1-8.74,101.16"/>
      <path class="cls-2" d="M501.09,1.99c55.03,80.35,83.63,188.64,82.49,305.71-1.9,185.05-56.36,382.36-108.66,574.68-24.48,90.02-47.28,173.39-60.77,249.55-5.31,30.09-9.03,58.74-10.31,85.36"/>
      <path class="cls-2" d="M541.88,2.12c43.28,81.35,62.79,185.68,57.21,296.86-9.83,193.09-72.38,396.5-131.6,594.22-27.47,91.93-52.87,176.62-68.11,253.71-4.86,24.56-8.61,48.12-10.73,70.35"/>
      <path class="cls-2" d="M576.84,2.23c33.9,81.52,46.31,182.28,37.17,288.54-17.37,200.65-87.68,409.87-153.4,612.68-30.37,93.71-58.09,179.66-75.07,257.56-4.22,19.43-7.73,38.23-10.25,56.23"/>
      <path class="cls-2" d="M607.15,2.33c26.29,81.2,33.1,178.73,21.11,280.81-24.5,207.72-102.09,422.43-174.02,629.97-33.08,95.36-62.99,182.46-81.6,261.12-3.48,14.71-6.52,29.05-9.01,42.95"/>
      <path class="cls-2" d="M633.6,2.41c20.09,80.55,22.39,175.21,8.1,273.69-31.17,214.29-115.59,434.13-193.35,646.1-35.56,96.92-67.54,185.02-87.68,264.37-2.64,10.39-5.04,20.58-7.19,30.57"/>
      <path class="cls-2" d="M656.78,2.48c15,79.72,13.68,171.82-2.49,267.19-37.42,220.33-128.16,445-211.34,661.01-37.85,98.31-71.81,187.36-93.32,267.35-1.74,6.44-3.37,12.8-4.93,19.08"/>
      <path class="cls-2" d="M680.85,2.56c9.97,78.43,3.01,167.38-14.9,261.27-43.21,225.89-139.7,454.98-227.96,674.7-39.98,99.58-75.62,189.5-98.49,270.01-.81,2.86-1.61,5.71-2.38,8.55"/>
      <path class="cls-2" d="M698.45,2.61c6.42,77.56-2.65,164.51-21.81,255.98-48.5,230.94-150.3,464.05-243.12,687.12-41.73,100.3-78.84,190.62-102.87,271.36"/>
      <path class="cls-2" d="M713.73,2.66c3.56,76.7-7.22,161.88-27.43,251.28-53.2,235.47-159.85,472.17-256.79,698.27-41.96,97.73-79.26,185.86-104.35,264.84"/>
      <path class="cls-2" d="M726.88,2.7c1.21,75.89-11.02,159.51-32.01,247.19-57.47,239.45-168.27,479.4-268.91,708.13-41.98,95.46-79.45,181.64-105.42,259.02"/>
      <path class="cls-2" d="M738.03,2.74c-.66,75.15-13.99,157.5-35.65,243.67-61.13,242.92-175.65,485.68-279.51,716.69-42.06,93.43-79.59,177.91-106.19,253.93"/>
      <path class="cls-2" d="M747.32,2.77c-2.18,74.5-16.37,155.77-38.56,240.7-64.29,245.87-181.93,490.99-288.5,723.94-41.96,91.77-79.55,174.79-106.71,249.61"/>
      <path class="cls-2" d="M754.82,2.79c-3.33,73.97-18.25,154.34-40.83,238.32-66.84,248.28-187.1,495.33-295.89,729.88-41.94,90.35-79.5,172.19-107.04,246.04"/>
      <path class="cls-2" d="M760.6,2.81c-4.18,73.54-19.61,153.26-42.51,236.47-68.87,250.16-191.07,498.77-301.66,734.48-41.84,89.27-79.41,170.17-107.24,243.24"/>
      <path class="cls-2" d="M764.69,2.82c-4.79,73.23-20.54,152.49-43.67,235.15-70.25,251.51-193.99,501.15-305.78,737.79-41.85,88.46-79.35,168.71-107.36,241.24"/>
      <path class="cls-2" d="M767.14,2.83c-5.15,73.05-21.14,152-44.36,234.36-71.19,252.32-195.71,502.62-308.26,739.77-41.76,88.02-79.26,167.86-107.4,240.04"/>
    </g>
  </g>
</svg>