<?xml version="1.0" encoding="utf-8"?>
<!-- Generator: Adobe Illustrator 27.0.0, SVG Export Plug-In . SVG Version: 6.00 Build 0)  -->
<svg version="1.1" id="Layer_1" xmlns="http://www.w3.org/2000/svg" xmlns:xlink="http://www.w3.org/1999/xlink" x="0px" y="0px"
	 viewBox="0 0 842 596" style="enable-background:new 0 0 842 596;" xml:space="preserve">
<style type="text/css">
	.st0{opacity:0.2;}
	.st1{fill:none;stroke:#BBD531;}
	.st2{opacity:0.26;}
	.st3{fill:none;stroke:#98CC65;stroke-width:0.74;}
</style>
<g>
	<g id="vectorportal.com">
		<g class="st0">
			<g>
				<path class="st1" d="M2207.1-4397.5c649.2,914.6,1028,1979,883.8,2953.1C2937.4-423.5,2283.2,580.2,1476.5,1514.1
					C594.2,2535.2-423.9,3487-1304.7,4475.2c-871.8,979.1-1620.1,1941.2-1823.2,2959"/>
				<path class="st1" d="M1961.9-4394.9c644.4,917.4,1028.7,1978.3,893.8,2953.1C2712.4-422.9,2072.1,580.9,1285.2,1516.7
					C428.1,2535.6-555,3488.8-1396.7,4477.5c-832.7,979.5-1543,1944-1735.2,2959"/>
				<path class="st1" d="M1726.6-4392.3c640,920.1,1029.6,1977.6,903.6,2953.1C2496.6-422.1,1869.6,581.6,1101.9,1519.2
					C269,2536.1-680.7,3490.6-1484.6,4479.9c-795.4,979.9-1469.1,1946.4-1651,2958.8"/>
				<path class="st1" d="M1501.4-4389.7c635.6,922.5,1030.3,1976.9,912.9,2953C2290-421.4,1675.6,582.3,926.3,1521.7
					c-809.9,1015-1727,1970.8-2495.1,2960.5c-759.2,980-1398.4,1948.5-1570.4,2958.5"/>
				<path class="st1" d="M1286-4387.2c631.3,924.9,1031.2,1976,921.9,2953C2092.4-420.7,1490.2,583.2,758.7,1524
					C-29.2,2537.3-915.4,3493.8-1648.9,4484.3c-724.8,979.7-1330.7,1950.5-1493.5,2958.3"/>
				<path class="st1" d="M1080.8-4384.9c627.3,927,1032,1975.3,930.6,2953C1904.2-419.9,1313.5,583.7,599,1526.2
					c-767.2,1011.5-1623.5,1969-2324.3,2960.1c-691.9,979.7-1266.2,1952.3-1420.1,2958.1"/>
				<path class="st1" d="M885.4-4382.8c623.5,929.1,1032.8,1974.5,938.8,2953C1725-419.3,1145.3,584.3,447,1528.2
					c-747.3,1010.1-1575.5,1968.1-2244.9,2959.9c-660.3,979.6-1204.8,1953.9-1350.6,2958.1"/>
				<path class="st1" d="M700.2-4380.7c619.7,931,1033.5,1973.6,946.7,2953c-91.6,1009.2-660.9,2012.9-1343.7,2958
					C-425.6,2539-1226.6,3497.3-1866.5,4490c-630.8,979.4-1146.6,1955.3-1284.8,2958"/>
				<path class="st1" d="M524.8-4378.6C1141-3446,1559.1-2405.7,1479-1425.7C1394.6-417.6,834.9,585.9,166.8,1532.2
					c-711.1,1007.5-1486.5,1966.3-2098.3,2959.6c-602.4,979-1091.4,1956.6-1222.3,2957.7"/>
				<path class="st1" d="M359.5-4376.9c612.9,934.2,1035.1,1972.1,961.3,2952.9C1242.9-417,692.4,586.3,38.4,1533.9
					c-694.6,1006.5-1445.5,1965.5-2031,2959.5c-575.6,978.7-1039.4,1957.7-1163.6,2957.7"/>
				<path class="st1" d="M204.2-4375.1c609.7,935.7,1035.8,1971.4,968,2952.9C1100.6-416.4,558.6,587-82,1535.6
					C-761.2,2541-1489.3,3500-2049.9,4494.9c-550.7,978.4-990.9,1958.7-1108.6,2957.6"/>
				<path class="st1" d="M59-4373.5c606.6,936.9,1036.6,1970.7,974.4,2952.9C967.6-415.7,433.6,587.7-194.7,1537.1
					c-664.7,1004.6-1371.4,1963.7-1908.7,2959.2c-527.2,978-945.3,1959.6-1057.3,2957.5"/>
				<path class="st1" d="M-76.4-4372c603.9,938.1,1037.3,1970,980.2,2952.9C843.7-415,316.9,588.4-299.8,1538.6
					c-651.4,1003.8-1337.8,1962.9-1853.6,2959.1c-505.2,977.6-902.6,1960.4-1009.2,2957.4"/>
				<path class="st1" d="M-201.6-4370.6C399.6-3431.5,836.2-2401.3,784-1417.7C728.9-414.3,209.1,589.1-396.8,1539.9
					C-1036,2543-1703.7,3502-2199.4,4498.9c-484.9,977.2-863.2,1961-965,2957.3"/>
				<path class="st1" d="M-316.9-4369.2c598.8,939.9,1038.5,1968.6,990.7,2952.9C623.2-413.7,109.7,589.8-486.3,1541.2
					C-1114,2543.9-1764.7,3502.6-2241.8,4500.1c-466.4,976.9-827.1,1961.6-924.3,2957.1"/>
				<path class="st1" d="M-422.1-4368.1c596.5,940.8,1039,1967.8,995.4,2952.9C526.9-413.2,19.1,590.3-567.7,1542.3
					C-1185.2,2544.5-1820.2,3502.9-2280.4,4501c-449.5,976.6-794.1,1962.1-887.2,2957.1"/>
				<path class="st1" d="M-517.4-4367.1C77.1-3425.6,522.2-2399.8,482.1-1414.2C439.7-412.7-63.1,590.9-641.5,1543.3
					C-1249.7,2545-1870.6,3503.2-2315.3,4502c-434.3,976.3-764.2,1962.6-853.5,2957"/>
				<path class="st1" d="M-602.5-4366C-10-3424,437.3-2399.2,400.8-1413.2C361.6-412.1-136.5,591.4-707.4,1544.3
					c-600.1,1001.3-1208,1959.5-1639,2958.6c-420.5,976.1-737.4,1963-823.5,2956.8"/>
				<path class="st1" d="M-677.7-4365.2C-86.7-3422.7,362.6-2398.7,329-1412.3C292.8-411.7-201.3,591.9-765.6,1545.1
					c-592.7,1001.2-1189.4,1959-1608.4,2958.5c-408.5,975.8-714,1963.2-797.1,2956.8"/>
				<path class="st1" d="M-742.9-4364.5c589.5,942.9,1040.8,1966,1009.5,2952.8C233.1-411.4-257.5,592.5-816.1,1545.8
					c-586.2,1001-1173.4,1958.4-1581.8,2958.5c-397.8,975.6-693.5,1963.5-774.1,2956.7"/>
				<path class="st1" d="M-798-4363.9c588.4,943.2,1041.1,1965.6,1012,2952.8C182.7-411.2-305.1,592.6-858.7,1546.3
					c-581,1000.8-1159.9,1958.1-1559.3,2958.4c-389.3,975.5-676,1963.8-754.7,2956.8"/>
				<path class="st1" d="M-843.2-4363.4c587.4,943.5,1041.2,1965.3,1014,2952.8C141.4-410.8-344,593.1-893.7,1546.8
					c-576.6,1000.7-1148.6,1957.8-1540.9,2958.4c-382,975.3-661.9,1964-738.8,2956.8"/>
				<path class="st1" d="M-878.2-4363c586.5,943.7,1041.5,1965,1015.5,2952.8c-28,999.6-511.6,2003.5-1058.1,2957.3
					c-573,1000.7-1139.9,1957.7-1526.5,2958.4c-376.1,975.4-650.9,1964.1-726.5,2956.8"/>
				<path class="st1" d="M-903.3-4362.7c585.9,943.9,1041.6,1964.9,1016.7,2952.8C86.4-410.4-395.9,593.6-940.3,1547.5
					C-1511,2548-2074.1,3505-2456.5,4505.8c-372.2,975.2-643.3,1964.2-717.7,2956.6"/>
				<path class="st1" d="M-918.3-4362.5C-332.6-3418.6,123.4-2397.6,99-1409.7C72.5-410.4-408.8,593.7-951.9,1547.6
					C-1521.2,2548-2082,3505.1-2462.1,4506c-369.8,975.2-638.4,1964.2-712.4,2956.7"/>
			</g>
			<path class="st1" d="M-923.3-4362.5C-337.8-3418.6,118.5-2397.8,94.2-1409.7C67.9-410.3-413.3,593.7-955.7,1547.6
				C-1524.5,2548-2084.5,3505-2463.9,4506c-369,975.2-636.9,1964.3-710.6,2956.7"/>
		</g>
		<g class="st2">
			<path class="st3" d="M-2577.7-4370.5c3.7,1987.2,733,3880.7,1789.8,5866.7C207,3362.5,1068.8,5356.9,1082.8,7362.6"/>
			<path class="st3" d="M-2308.5-4363c-1.1,1983.7,676,3880.8,1679.5,5866.9C317.7,3374,1133.7,5365.7,1156.4,7370.5"/>
			<path class="st3" d="M-2050.2-4356c-6.5,1980.6,620.9,3880.9,1573.4,5867.2c900.3,1874,1672.6,3863.3,1703.9,5866.7"/>
			<path class="st3" d="M-1803.1-4349.2c-11.6,1977.8,568,3881.2,1471.5,5867.4C524.2,3396,1255,5382.7,1294.9,7385.1"/>
			<path class="st3" d="M-1566.9-4342.6C-1583.3-2367.4-1049.8-461.1-193.1,1525c813,1881.4,1504.8,3865.6,1552.8,5867.1"/>
			<path class="st3" d="M-1341.8-4336.5C-1363.3-2363.4-873.4-454.7-61.5,1531.2c772.3,1885.1,1427.1,3866.9,1483,5867.5"/>
			<path class="st3" d="M-1127.7-4330.5c-26.3,1971.2,421.8,3882.4,1191.2,5868C797,3425.7,1416.7,5405.3,1480.5,7404.9"/>
			<path class="st3" d="M-924.6-4325c-31,1969.5,377.2,3882.9,1106.5,5868c696.3,1891.8,1283.2,3869.2,1354.5,5867.6"/>
			<path class="st3" d="M-732.5-4319.7C-768-2351.6-397.4-436.3,293.7,1548.7c661.2,1894.5,1217.1,3870.1,1295.7,5867.6"/>
			<path class="st3" d="M-551.4-4314.7c-40.1,1967,295.1,3883.9,950.1,5868.5c628.1,1897.4,1155.1,3871,1240.6,5867.7"/>
			<path class="st3" d="M-381.4-4310c-44.3,1965.8,257.1,3884.7,878.7,5868.7c596.8,1900,1096.9,3872,1188.9,5867.9"/>
			<path class="st3" d="M-222.3-4305.7c-48.5,1965,221.6,3885.2,811.7,5868.8c567.5,1902.6,1042.7,3873.1,1140.8,5868"/>
			<path class="st3" d="M-74.2-4301.5c-52.2,1964.3,188.5,3885.8,749.3,5869c540.1,1904.8,992.1,3873.8,1096.2,5868.1"/>
			<path class="st3" d="M63-4297.7C7.1-2334,220.7-411.4,754.2,1571.4C1269,3478.2,1699.7,5446,1809.1,7439.5"/>
			<path class="st3" d="M189-4294.3C129.9-2331,318.3-407.4,826.8,1574.9c491.4,1908.9,902.7,3875.5,1017.3,5868.2"/>
			<path class="st3" d="M304.3-4291.2C242-2328.3,407.4-403.8,893.2,1578c469.9,1910.7,863.5,3876.5,982.9,5868.6"/>
			<path class="st3" d="M408.4-4288.3c-65.1,1962.6,79.5,3887.9,544.7,5869.4c450.5,1912,828.2,3877,951.8,5868.4"/>
			<path class="st3" d="M501.5-4285.7c-67.7,1962.4,58.3,3888.4,505.1,5869.5c433.1,1913.3,796.7,3877.6,924.1,5868.4"/>
			<path class="st3" d="M583.8-4283.5C513.7-2321.2,623.3-394.6,1054,1586.1c417.7,1914.5,768.9,3878.2,899.7,5868.5"/>
			<path class="st3" d="M655-4281.5c-72,1962.2,23.2,3889.2,439.8,5869.6c404.5,1915.5,744.9,3878.7,878.6,5868.7"/>
			<path class="st3" d="M715.3-4279.8c-73.8,1962.1,9.3,3889.5,414.1,5869.6c393.2,1916.4,724.4,3879.3,860.7,5868.7"/>
			<path class="st3" d="M764.6-4278.4c-75.2,1962-1.9,3889.8,393,5869.7c384.1,1916.8,707.9,3879.3,846.3,5868.6"/>
			<path class="st3" d="M803.1-4277.3c-76.3,1962-10.7,3889.9,376.6,5869.8c376.8,1917.4,694.9,3879.7,834.9,5868.6"/>
			<path class="st3" d="M830.4-4276.5c-77,1962-17,3890.1,364.8,5869.8C1566.9,3511,1881,5473.1,2022.2,7461.9"/>
			<path class="st3" d="M846.9-4276.2c-77.6,1962-20.8,3890.2,357.9,5869.8c368.5,1918,680.1,3880,822,5868.7"/>
		</g>
	</g>
</g>
</svg>
