<?xml version="1.0" encoding="UTF-8"?>
<svg xmlns="http://www.w3.org/2000/svg" viewBox="0 0 842.02 596.01">
  <defs>
    <style>
      .cls-1 {
        stroke: #98cc65;
        stroke-width: .74px;
      }

      .cls-1, .cls-2 {
        fill: none;
      }

      .cls-3 {
        isolation: isolate;
      }

      .cls-2 {
        stroke: #bbd531;
      }

      .cls-4 {
        opacity: .2;
      }

      .cls-5 {
        mix-blend-mode: hard-light;
        opacity: .26;
      }
    </style>
  </defs>
  <g class="cls-3">
    <g id="vectorportal.com">
      <g class="cls-4">
        <g>
          <path class="cls-2" d="M841.68,507.89c-64.98,60.73-140.55,96.05-209.63,82.32-72.4-14.61-143.5-76.2-209.63-152.09-72.3-82.99-139.66-178.72-209.63-261.57C143.47,94.55,75.33,24.14,3.16,4.87"/>
          <path class="cls-2" d="M841.53,484.88c-65.18,60.28-140.5,96.12-209.63,83.26-72.26-13.65-143.37-73.94-209.63-147.97-72.15-80.63-139.62-173.07-209.63-252.25C143.28,89.59,74.97,22.74,3,4.5"/>
          <path class="cls-2" d="M841.38,462.8c-65.37,59.86-140.45,96.2-209.63,84.18-72.13-12.74-143.24-71.78-209.63-144.01-72.01-78.36-139.58-167.66-209.63-243.3C143.1,84.84,74.64,21.42,2.85,4.15"/>
          <path class="cls-2" d="M841.23,441.67c-65.54,59.45-140.4,96.27-209.63,85.05-72-11.87-143.11-69.72-209.63-140.22-71.88-76.2-139.54-162.45-209.63-234.72C142.94,80.34,74.33,20.17,2.71,3.82"/>
          <path class="cls-2" d="M841.09,421.46c-65.71,59.05-140.34,96.35-209.63,85.9-71.88-11.05-143-67.76-209.63-136.59-71.76-74.14-139.48-157.49-209.63-226.52C142.81,76.04,74.04,18.99,2.57,3.51"/>
          <path class="cls-2" d="M840.96,402.2c-65.86,58.67-140.29,96.43-209.63,86.71-71.78-10.26-142.88-65.89-209.63-133.13-71.64-72.19-139.43-152.74-209.63-218.7C142.68,71.96,73.77,17.87,2.44,3.22"/>
          <path class="cls-2" d="M840.84,383.87c-66.01,58.31-140.23,96.5-209.63,87.48-71.67-9.51-142.78-64.11-209.63-129.83-71.54-70.33-139.37-148.23-209.63-211.25C142.56,68.11,73.53,16.82,2.31,2.94"/>
          <path class="cls-2" d="M840.72,366.49c-66.14,57.96-140.17,96.57-209.63,88.22-71.58-8.8-142.69-62.43-209.63-126.69-71.45-68.58-139.31-143.94-209.63-204.18C142.45,64.45,73.3,15.85,2.19,2.68"/>
          <path class="cls-2" d="M840.6,350.03c-66.26,57.63-140.12,96.65-209.63,88.93-71.5-8.13-142.6-60.85-209.63-123.73-71.36-66.93-139.26-139.88-209.63-197.49C142.35,61.02,73.08,14.93,2.08,2.44"/>
          <path class="cls-2" d="M840.5,334.52c-66.37,57.32-140.06,96.72-209.63,89.59-71.42-7.51-142.51-59.37-209.63-120.93-71.29-65.38-139.21-136.04-209.63-191.18C142.27,57.79,72.89,14.07,1.97,2.21"/>
          <path class="cls-2" d="M840.4,319.95c-66.47,57.02-140.01,96.79-209.63,90.22-71.34-6.92-142.44-57.98-209.63-118.29-71.22-63.93-139.14-132.45-209.63-185.25C142.19,54.76,72.71,13.25,1.87,2"/>
          <path class="cls-2" d="M840.31,306.32c-66.56,56.73-139.96,96.86-209.63,90.82-71.28-6.37-142.38-56.68-209.63-115.83-71.16-62.58-139.09-129.08-209.63-179.7C142.12,51.94,72.55,12.51,1.78,1.8"/>
          <path class="cls-2" d="M840.22,293.62c-66.64,56.47-139.91,96.93-209.63,91.37-71.22-5.85-142.32-55.48-209.63-113.54-71.11-61.33-139.04-125.93-209.63-174.53C142.06,49.32,72.4,11.83,1.69,1.62"/>
          <path class="cls-2" d="M840.14,281.87c-66.71,56.22-139.86,96.98-209.63,91.88-71.17-5.38-142.27-54.36-209.63-111.41-71.06-60.18-138.99-123.03-209.63-169.74C142,46.9,72.27,11.2,1.61,1.45"/>
          <path class="cls-2" d="M840.06,271.05c-66.77,55.99-139.81,97.04-209.63,92.35-71.12-4.95-142.23-53.34-209.63-109.45-71.03-59.11-138.94-120.36-209.63-165.33C141.94,44.66,72.14,10.61,1.54,1.29"/>
          <path class="cls-2" d="M840,261.18c-66.83,55.78-139.76,97.09-209.63,92.79-71.08-4.55-142.19-52.41-209.63-107.66-71-58.15-138.89-117.93-209.63-161.31C141.9,42.62,72.04,10.09,1.47,1.15"/>
          <path class="cls-2" d="M839.94,252.24c-66.88,55.59-139.72,97.14-209.63,93.18-71.04-4.19-142.16-51.57-209.63-106.04-70.97-57.27-138.85-115.73-209.63-157.66C141.86,40.77,71.94,9.61,1.41,1.03"/>
          <path class="cls-2" d="M839.88,244.25c-66.92,55.41-139.69,97.17-209.63,93.54-71.01-3.88-142.12-50.83-209.63-104.59-70.94-56.51-138.82-113.75-209.63-154.4C141.81,39.14,71.85,9.21,1.36,.92"/>
          <path class="cls-2" d="M839.83,237.2c-66.95,55.26-139.66,97.21-209.63,93.85-70.98-3.6-142.1-50.17-209.63-103.31-70.93-55.82-138.79-112-209.63-151.52C141.78,37.69,71.78,8.82,1.31,.82"/>
          <path class="cls-2" d="M839.79,231.08c-66.98,55.12-139.63,97.26-209.63,94.12-70.95-3.35-142.09-49.59-209.63-102.2-70.92-55.21-138.75-110.5-209.63-149.03C141.75,36.44,71.72,8.5,1.27,.73"/>
          <path class="cls-2" d="M839.76,225.91c-67,55.02-139.6,97.28-209.63,94.35-70.93-3.14-142.06-49.12-209.63-101.26-70.91-54.72-138.73-109.24-209.63-146.92C141.73,35.35,71.66,8.25,1.23,.66"/>
          <path class="cls-2" d="M839.73,221.67c-67.02,54.92-139.58,97.29-209.63,94.54-70.92-2.97-142.06-48.72-209.63-100.49-70.9-54.31-138.71-108.18-209.63-145.19C141.71,34.49,71.62,8.02,1.2,.6"/>
          <path class="cls-2" d="M839.71,218.38c-67.04,54.84-139.56,97.32-209.63,94.68-70.91-2.83-142.05-48.41-209.63-99.89-70.9-53.97-138.7-107.36-209.63-143.84C141.68,33.84,71.59,7.85,1.18,.56"/>
          <path class="cls-2" d="M839.69,216.03c-67.05,54.78-139.55,97.33-209.63,94.79-70.9-2.74-142.05-48.2-209.63-99.47-70.89-53.76-138.69-106.79-209.63-142.88C141.68,33.35,71.56,7.71,1.17,.52"/>
          <path class="cls-2" d="M839.68,214.62c-67.05,54.76-139.55,97.34-209.63,94.85-70.89-2.69-142.04-48.06-209.63-99.21-70.88-53.63-138.69-106.44-209.63-142.31C141.67,33.05,71.55,7.65,1.15,.5"/>
        </g>
        <path class="cls-2" d="M839.68,214.15c-67.05,54.75-139.54,97.35-209.63,94.87-70.89-2.67-142.04-48.03-209.63-99.12-70.88-53.58-138.68-106.32-209.63-142.12C141.67,32.96,71.54,7.62,1.15,.5"/>
      </g>
      <g class="cls-5">
        <path class="cls-1" d="M840.5,58.92c-140.97-.06-275.41,67.98-416.46,166.74C291.49,318.63,149.88,399.08,7.59,399.98"/>
        <path class="cls-1" d="M839.93,84.18c-140.72-.51-275.41,62.63-416.46,156.39C290.66,329.01,149.24,405.17,7.02,406.89"/>
        <path class="cls-1" d="M839.39,108.41c-140.5-1.02-275.41,57.46-416.46,146.43C289.85,338.93,148.61,410.99,6.48,413.52"/>
        <path class="cls-1" d="M838.87,131.6c-140.3-1.49-275.42,52.5-416.46,136.87C289.07,348.38,148.02,416.55,5.96,419.88"/>
        <path class="cls-1" d="M838.37,153.76c-140.12-1.95-275.44,47.72-416.46,127.7C288.32,357.36,147.45,421.86,5.46,425.96"/>
        <path class="cls-1" d="M837.9,174.88c-139.97-2.42-275.45,43.15-416.45,118.93C287.6,365.89,146.91,426.92,4.98,431.76"/>
        <path class="cls-1" d="M837.44,194.97c-139.83-2.87-275.48,38.78-416.46,110.57C286.92,373.97,146.39,431.71,4.53,437.29"/>
        <path class="cls-1" d="M837.02,214.02c-139.71-3.31-275.51,34.6-416.45,102.62C286.26,381.59,145.89,436.25,4.11,442.53"/>
        <path class="cls-1" d="M836.61,232.05c-139.61-3.74-275.54,30.64-416.46,95.08C285.65,388.78,145.42,440.54,3.7,447.5"/>
        <path class="cls-1" d="M836.23,249.04c-139.53-4.17-275.57,26.89-416.46,87.95C285.07,395.54,144.98,444.58,3.32,452.19"/>
        <path class="cls-1" d="M835.87,264.99c-139.45-4.56-275.62,23.33-416.46,81.25C284.53,401.85,144.56,448.37,2.96,456.59"/>
        <path class="cls-1" d="M835.54,279.92c-139.39-4.95-275.65,20-416.46,74.96C284.02,407.74,144.16,451.92,2.63,460.72"/>
        <path class="cls-1" d="M835.22,293.81c-139.34-5.3-275.69,16.89-416.46,69.1C283.55,413.2,143.8,455.21,2.31,464.56"/>
        <path class="cls-1" d="M834.93,306.68c-139.3-5.64-275.72,14-416.46,63.66C283.12,418.25,143.46,458.26,2.02,468.12"/>
        <path class="cls-1" d="M834.67,318.51c-139.27-5.95-275.76,11.33-416.46,58.64C282.72,422.87,143.14,461.06,1.76,471.4"/>
        <path class="cls-1" d="M834.43,329.32c-139.24-6.24-275.79,8.88-416.45,54.06C282.36,427.08,142.85,463.61,1.51,474.4"/>
        <path class="cls-1" d="M834.21,339.09c-139.22-6.51-275.82,6.66-416.46,49.91C282.04,430.88,142.59,465.92,1.3,477.11"/>
        <path class="cls-1" d="M834.01,347.83c-139.2-6.75-275.85,4.67-416.46,46.19C281.75,434.27,142.35,467.98,1.1,479.53"/>
        <path class="cls-1" d="M833.84,355.55c-139.19-6.98-275.88,2.91-416.46,42.91C281.5,437.26,142.14,469.81,.93,481.68"/>
        <path class="cls-1" d="M833.69,362.23c-139.19-7.16-275.9,1.38-416.46,40.06C281.28,439.85,141.96,471.39,.77,483.53"/>
        <path class="cls-1" d="M833.56,367.89c-139.18-7.33-275.92,.08-416.45,37.65C281.1,442.04,141.8,472.72,.65,485.1"/>
        <path class="cls-1" d="M833.45,372.51c-139.17-7.46-275.94-.98-416.46,35.67C280.95,443.83,141.68,473.81,.54,486.39"/>
        <path class="cls-1" d="M833.37,376.12c-139.17-7.56-275.95-1.8-416.46,34.13C280.83,445.21,141.58,474.66,.46,487.39"/>
        <path class="cls-1" d="M833.31,378.69c-139.17-7.63-275.96-2.39-416.46,33.03C280.75,446.2,141.51,475.27,.4,488.11"/>
        <path class="cls-1" d="M833.28,380.23c-139.17-7.68-275.97-2.75-416.46,32.38C280.7,446.79,141.47,475.63,.37,488.54"/>
      </g>
    </g>
  </g>
</svg>