<?xml version="1.0" encoding="utf-8"?>
<!-- Generator: Adobe Illustrator 27.0.0, SVG Export Plug-In . SVG Version: 6.00 Build 0)  -->
<svg version="1.1" id="Layer_1" xmlns="http://www.w3.org/2000/svg" xmlns:xlink="http://www.w3.org/1999/xlink" x="0px" y="0px"
	 viewBox="0 0 6296.9 8192" style="enable-background:new 0 0 6296.9 8192;" xml:space="preserve">
<style type="text/css">
	.st0{opacity:0.2;}
	.st1{fill:none;stroke:#BBD531;stroke-width:0.6907;stroke-miterlimit:2.7628;}
	.st2{opacity:0.26;}
	.st3{fill:none;stroke:#98CC65;stroke-width:0.5111;stroke-miterlimit:2.7628;}
</style>
<g id="vectorportal.com">
	<g class="st0">
		<g>
			<path class="st1" d="M4691.2,0.2c448.4,631.7,710,1366.9,610.4,2039.7c-106,705.1-557.9,1398.4-1115.1,2043.5
				c-609.3,705.3-1312.6,1362.6-1921,2045.2c-602.1,676.2-1119,1340.8-1259.3,2043.8"/>
			<path class="st1" d="M4521.8,2c445.1,633.6,710.5,1366.4,617.3,2039.7c-98.9,703.8-541.2,1397.1-1084.7,2043.4
				c-592,703.8-1271,1362.2-1852.4,2045.1c-575.1,676.6-1065.7,1342.7-1198.5,2043.7"/>
			<path class="st1" d="M4359.3,3.8c442,635.5,711.1,1365.9,624.1,2039.7c-92.2,702.5-525.3,1395.8-1055.6,2043.3
				c-575.3,702.4-1231.2,1361.7-1786.5,2044.9C1592,6808.6,1126.6,7476.1,1001,8175.4"/>
			<path class="st1" d="M4203.8,5.6c439,637.2,711.6,1365.4,630.5,2039.6c-85.8,701.2-510.2,1394.5-1027.7,2043.3
				c-559.4,701.1-1192.8,1361.2-1723.3,2044.8c-524.4,676.8-965.8,1345.8-1084.7,2043.4"/>
			<path class="st1" d="M4055,7.3c436.1,638.8,712.2,1364.8,636.8,2039.6c-79.8,700-495.7,1393.4-1001,2043.2
				c-544.2,699.9-1156.3,1360.5-1663,2044.7C1527.2,6811.5,1108.7,7482,996.3,8178.1"/>
			<path class="st1" d="M3913.2,8.9C4346.5,649.2,4626,1373.3,4556,2048.5c-74,699-482,1392.2-975.5,2043.2
				c-529.9,698.7-1121.4,1360-1605.4,2044.5c-477.9,676.6-874.6,1348.4-980.9,2043.2"/>
			<path class="st1" d="M3778.3,10.4c430.6,641.8,713.3,1363.8,648.4,2039.6c-68.5,698-468.9,1391.2-951.2,2043.1
				c-516.2,697.7-1088.2,1359.3-1550.6,2044.4c-456.1,676.6-832.2,1349.5-932.8,2043.2"/>
			<path class="st1" d="M3650.4,11.8c428,643,713.8,1363.2,653.8,2039.6c-63.3,697.1-456.5,1390.3-928.1,2043
				c-503.3,696.8-1056.6,1358.7-1498.5,2044.3c-435.7,676.5-792,1350.5-887.4,2043.1"/>
			<path class="st1" d="M3529.2,13.3c425.6,644.2,714.4,1362.7,659.1,2039.6c-58.3,696.3-444.9,1389.4-906.3,2043
				C2790.8,4791.7,2255.3,5454,1832.7,6140c-416,676.2-753.8,1351.4-844.3,2042.9"/>
			<path class="st1" d="M3415,14.5C3838.4,659.8,4130,1376.6,4079,2054c-53.8,695.5-434,1388.5-885.7,2043
				c-479.7,695.1-998.4,1357.6-1402.8,2044.1c-397.6,676-717.9,1352.2-803.7,2042.9"/>
			<path class="st1" d="M3307.8,15.7c421.1,646.3,715.4,1361.6,668.6,2039.6c-49.4,694.7-423.8,1387.8-866.3,2042.9
				c-469.1,694.4-972,1356.8-1359.2,2044c-380.3,675.8-684.4,1352.9-765.7,2042.8"/>
			<path class="st1" d="M3207.5,16.8c419,647.1,716,1361.1,673,2039.6c-45.4,694.1-414.2,1387.2-848.2,2042.9
				C2573.1,4793,2085.1,5455.5,1714,6143.1c-364.1,675.5-652.9,1353.5-730.2,2042.7"/>
			<path class="st1" d="M3114,17.9c417.1,647.9,716.5,1360.6,677,2039.5c-41.5,693.5-405.4,1386.6-831.3,2042.8
				c-449.9,693.3-924,1355.8-1280.3,2043.8c-348.9,675.2-623.4,1354-697,2042.6"/>
			<path class="st1" d="M3027.5,18.8c415.3,648.6,716.8,1360.2,680.8,2039.5c-38.1,693-397.1,1386.1-815.6,2042.8
				c-441.5,692.8-902.7,1355.2-1245,2043.7c-334.9,675-596.2,1354.5-666.5,2042.6"/>
			<path class="st1" d="M2947.9,19.8c413.6,649.2,717.3,1359.7,684.2,2039.5c-34.9,692.5-389.6,1385.6-801.2,2042.8
				c-433.6,692.5-883,1354.7-1212.5,2043.7c-322.1,674.7-571.3,1354.9-638.4,2042.4"/>
			<path class="st1" d="M2875.2,20.5c412,649.8,717.7,1359.2,687.5,2039.5c-32,692.1-382.8,1385.2-788,2042.7
				C2348.1,4795,1909.5,5457,1591.7,6146.4c-310.5,674.5-548.5,1355.2-612.8,2042.4"/>
			<path class="st1" d="M2809.4,21.3c410.6,650.3,718,1358.8,690.4,2039.5c-29.3,691.7-376.6,1384.9-776.1,2042.7
				c-420.1,691.9-848.9,1353.7-1156.1,2043.5c-300,674.3-527.8,1355.6-589.5,2042.4"/>
			<path class="st1" d="M2750.6,22c409.3,650.7,718.2,1358.5,693,2039.5c-27,691.4-371.1,1384.5-765.4,2042.7
				c-414.5,691.6-834.4,1353.4-1132.1,2043.5c-290.5,674.2-509.3,1355.8-568.8,2042.3"/>
			<path class="st1" d="M2698.7,22.6c408.2,651,718.5,1358.2,695.3,2039.5c-25,691.1-366.3,1384.3-756,2042.7
				c-409.4,691.5-821.5,1353.1-1110.9,2043.4c-282.1,674-493.2,1356-550.6,2042.2"/>
			<path class="st1" d="M2653.6,23.1c407.2,651.2,718.9,1357.9,697.3,2039.5c-23.2,690.8-362,1384.2-747.8,2042.7
				c-404.9,691.4-810.4,1352.7-1092.6,2043.4c-274.8,673.9-479,1356.1-534.7,2042.2"/>
			<path class="st1" d="M2615.6,23.4c406.4,651.4,719,1357.6,699,2039.5c-21.6,690.6-358.6,1383.9-740.9,2042.6
				c-401.3,691.3-801.2,1352.5-1077,2043.4c-268.9,673.8-466.9,1356.4-521.3,2042.3"/>
			<path class="st1" d="M2584.4,23.8c405.7,651.6,719.1,1357.4,700.4,2039.5c-20.4,690.5-355.6,1383.9-735.2,2042.6
				c-398.3,691.2-793.4,1352.3-1064.3,2043.3c-263.8,673.6-457.2,1356.5-510.3,2042.2"/>
			<path class="st1" d="M2560.2,24c405.1,651.8,719.3,1357.2,701.4,2039.5c-19.3,690.4-353.3,1383.8-730.8,2042.6
				c-395.8,691.2-787.3,1352.1-1054.3,2043.3c-259.8,673.7-449.6,1356.6-501.8,2042.2"/>
			<path class="st1" d="M2542.9,24.3c404.7,651.9,719.4,1357.1,702.2,2039.5c-18.7,690.3-351.8,1383.8-727.7,2042.6
				c-394.2,691.1-783.1,1352-1047.3,2043.3c-257,673.5-444.3,1356.6-495.7,2042.1"/>
			<path class="st1" d="M2532.5,24.4C2937,676.3,3252,1381.5,3235.1,2063.9c-18.3,690.2-350.7,1383.7-725.8,2042.6
				c-393.3,691-780.6,1352-1043.1,2043.3c-255.4,673.5-440.9,1356.7-492,2042.2"/>
		</g>
		<path class="st1" d="M2529,24.4c404.4,651.9,719.6,1357,702.8,2039.5c-18.1,690.2-350.5,1383.7-725.2,2042.6
			c-392.9,691-779.7,1351.9-1041.7,2043.3c-254.8,673.5-439.9,1356.7-490.8,2042.2"/>
	</g>
	<g class="st2">
		<path class="st3" d="M1386.4,18.9c2.6,1372.5,506.3,2680.4,1236.2,4052.1c687.2,1289,1282.4,2666.5,1292,4051.9"/>
		<path class="st3" d="M1572.3,24.1c-0.8,1370.1,466.9,2680.5,1160,4052.2c653.8,1291.7,1217.5,2667.3,1233.1,4052"/>
		<path class="st3" d="M1750.7,28.9c-4.5,1368,428.8,2680.5,1086.7,4052.4c621.8,1294.4,1155.3,2668.3,1176.9,4052.1"/>
		<path class="st3" d="M1921.4,33.6c-8,1366,392.3,2680.7,1016.4,4052.6c591.1,1296.9,1095.9,2669.1,1123.4,4052.2"/>
		<path class="st3" d="M2084.5,38.1c-11.4,1364.3,357.1,2681,948.9,4052.7c561.5,1299.4,1039.3,2670,1072.5,4052.3"/>
		<path class="st3" d="M2240,42.4c-14.8,1362.8,323.5,2681.2,884.3,4052.8c533.4,1302,985.7,2670.9,1024.3,4052.6"/>
		<path class="st3" d="M2387.9,46.5c-18.2,1361.5,291.3,2681.5,822.8,4053c506.6,1304.1,934.6,2671.4,978.7,4052.5"/>
		<path class="st3" d="M2528.1,50.3c-21.4,1360.3,260.6,2681.9,764.2,4053c481,1306.6,886.3,2672.4,935.5,4052.7"/>
		<path class="st3" d="M2660.8,54c-24.6,1359.3,231.4,2682.2,708.7,4053.2c456.7,1308.5,840.7,2673,894.9,4052.7"/>
		<path class="st3" d="M2785.9,57.4C2758.2,1416,2989.7,2740,3442.2,4110.8C3876,5421.3,4240,6784.5,4299,8163.6"/>
		<path class="st3" d="M2903.3,60.7c-30.6,1357.8,177.6,2683.1,606.9,4053.5c412.2,1312.3,757.6,2674.4,821.1,4052.9"/>
		<path class="st3" d="M3013.2,63.6c-33.5,1357.2,153.1,2683.5,560.6,4053.6c392,1314.1,720.2,2675.1,787.9,4053"/>
		<path class="st3" d="M3115.5,66.5c-36,1356.7,130.2,2683.9,517.5,4053.6c373.1,1315.6,685.3,2675.6,757.1,4053"/>
		<path class="st3" d="M3210.2,69.2c-38.6,1356.3,108.9,2684.3,477.5,4053.7c355.5,1317,653,2676.2,728.6,4053.1"/>
		<path class="st3" d="M3297.3,71.5c-40.8,1356.1,89.3,2684.7,440.5,4053.8c339.4,1318.4,623.5,2676.8,702.6,4053.1"/>
		<path class="st3" d="M3376.9,73.7c-43,1355.8,71.2,2685,406.8,4053.8c324.6,1319.7,596.4,2677.4,678.9,4053.4"/>
		<path class="st3" d="M3448.8,75.6c-45,1355.6,54.9,2685.3,376.2,4054c311.2,1320.6,572.1,2677.8,657.4,4053.2"/>
		<path class="st3" d="M3513.2,77.5c-46.7,1355.4,40.2,2685.7,348.9,4054c299.2,1321.5,550.3,2678.2,638.3,4053.3"/>
		<path class="st3" d="M3570,79c-48.4,1355.3,27.3,2686,324.7,4054.1c288.5,1322.3,531.1,2678.7,621.4,4053.3"/>
		<path class="st3" d="M3619.2,80.3c-49.7,1355.3,16,2686.2,303.7,4054.1c279.4,1323,514.5,2679,606.9,4053.5"/>
		<path class="st3" d="M3660.8,81.5c-51,1355.2,6.5,2686.4,286,4054.1c271.6,1323.6,500.4,2679.4,594.5,4053.5"/>
		<path class="st3" d="M3694.8,82.5c-52,1355.1-1.3,2686.6,271.4,4054.2c265.3,1323.9,489,2679.4,584.6,4053.4"/>
		<path class="st3" d="M3721.4,83.2c-52.7,1355.1-7.4,2686.7,260.1,4054.2c260.2,1324.3,480,2679.6,576.7,4053.4"/>
		<path class="st3" d="M3740.3,83.8c-53.2,1355.1-11.7,2686.9,252,4054.2C4249,5462.5,4466,6817.8,4563.5,8191.4"/>
		<path class="st3" d="M3751.7,84c-53.6,1355.1-14.4,2687,247.2,4054.2c254.5,1324.7,469.7,2679.9,567.8,4053.4"/>
	</g>
</g>
<g id="vectorportal.com_00000177447487460422787030000000759509389992333454_">
	<g class="st0">
		<g>
			<path class="st1" d="M4691.2,0.2c448.4,631.7,710,1366.9,610.4,2039.7c-106,705.1-557.9,1398.4-1115.1,2043.5
				C3577.2,4788.6,2874,5446,2265.6,6128.6c-602.1,676.2-1119,1340.8-1259.3,2043.8"/>
			<path class="st1" d="M4521.8,2.1c445.1,633.6,710.5,1366.4,617.3,2039.7c-98.9,703.8-541.2,1397.1-1084.7,2043.4
				c-592,703.8-1271,1362.2-1852.4,2045.1C1627,6806.8,1136.3,7472.9,1003.6,8173.9"/>
			<path class="st1" d="M4359.3,3.9c442,635.5,711.1,1365.9,624.1,2039.7c-92.2,702.5-525.3,1395.8-1055.6,2043.3
				c-575.3,702.4-1231.2,1361.7-1786.5,2044.9C1592,6808.6,1126.6,7476.1,1001,8175.4"/>
			<path class="st1" d="M4203.8,5.7c439,637.2,711.6,1365.4,630.5,2039.6c-85.8,701.2-510.2,1394.5-1027.7,2043.3
				c-559.4,701.1-1192.8,1361.2-1723.3,2044.8c-524.4,676.8-965.8,1345.8-1084.7,2043.4"/>
			<path class="st1" d="M4055,7.4c436.1,638.8,712.2,1364.8,636.8,2039.6c-79.8,700-495.7,1393.4-1001,2043.2
				c-544.2,699.9-1156.3,1360.5-1663,2044.7C1527.2,6811.5,1108.7,7482,996.3,8178.1"/>
			<path class="st1" d="M3913.2,8.9C4346.5,649.2,4626,1373.3,4556,2048.6c-74,699-482,1392.2-975.5,2043.2
				c-529.9,698.7-1121.4,1360-1605.4,2044.5c-477.9,676.6-874.6,1348.4-980.9,2043.2"/>
			<path class="st1" d="M3778.3,10.4c430.6,641.8,713.3,1363.8,648.4,2039.6c-68.5,698-468.9,1391.2-951.2,2043.1
				c-516.2,697.7-1088.2,1359.3-1550.6,2044.4c-456.1,676.6-832.2,1349.5-932.8,2043.2"/>
			<path class="st1" d="M3650.4,11.8c428.1,643,713.8,1363.2,653.8,2039.6c-63.3,697.1-456.5,1390.3-928.1,2043
				c-503.3,696.8-1056.6,1358.7-1498.5,2044.3c-435.7,676.5-792,1350.5-887.4,2043.1"/>
			<path class="st1" d="M3529.2,13.3c425.6,644.2,714.4,1362.7,659.1,2039.6c-58.3,696.3-444.9,1389.4-906.3,2043
				C2790.8,4791.7,2255.3,5454,1832.7,6140.1c-416,676.2-753.8,1351.4-844.3,2042.9"/>
			<path class="st1" d="M3415.1,14.5C3838.4,659.8,4130,1376.6,4079,2054.1c-53.8,695.5-434,1388.5-885.7,2043
				c-479.7,695.1-998.4,1357.6-1402.8,2044.1c-397.6,676-717.9,1352.2-803.7,2042.9"/>
			<path class="st1" d="M3307.8,15.7c421.1,646.3,715.4,1361.6,668.6,2039.6C3927,2750,3552.6,3443,3110.1,4098.2
				c-469.1,694.4-972,1356.8-1359.2,2044c-380.3,675.8-684.4,1352.9-765.7,2042.8"/>
			<path class="st1" d="M3207.5,16.8c419,647.1,716,1361.1,673,2039.6c-45.4,694.1-414.2,1387.2-848.2,2042.9
				c-459.1,693.8-947.2,1356.3-1318.3,2043.9c-364.1,675.5-652.9,1353.5-730.2,2042.7"/>
			<path class="st1" d="M3114,17.9c417.1,647.9,716.5,1360.6,677,2039.5c-41.5,693.5-405.4,1386.6-831.3,2042.8
				c-449.9,693.3-924,1355.8-1280.3,2043.8c-348.9,675.2-623.4,1354-697,2042.6"/>
			<path class="st1" d="M3027.5,18.9c415.3,648.6,716.8,1360.2,680.8,2039.5c-38.1,693-397.1,1386.1-815.6,2042.8
				c-441.5,692.8-902.7,1355.2-1245,2043.7c-334.9,675-596.2,1354.5-666.5,2042.6"/>
			<path class="st1" d="M2947.9,19.8c413.6,649.2,717.3,1359.7,684.2,2039.5c-34.9,692.5-389.6,1385.6-801.2,2042.8
				c-433.6,692.5-883,1354.7-1212.5,2043.7c-322.1,674.7-571.3,1354.9-638.4,2042.4"/>
			<path class="st1" d="M2875.2,20.6c412,649.8,717.7,1359.2,687.5,2039.5c-32,692.1-382.8,1385.2-788,2042.7
				C2348.1,4795,1909.5,5457,1591.7,6146.4c-310.5,674.5-548.5,1355.2-612.8,2042.4"/>
			<path class="st1" d="M2809.4,21.3c410.6,650.3,718,1358.8,690.4,2039.5c-29.3,691.7-376.6,1384.9-776.1,2042.7
				c-420.1,691.9-848.9,1353.7-1156.1,2043.5c-300,674.3-527.8,1355.6-589.5,2042.4"/>
			<path class="st1" d="M2750.6,22c409.3,650.7,718.2,1358.5,693,2039.5c-27,691.4-371.1,1384.5-765.4,2042.7
				c-414.5,691.6-834.4,1353.4-1132.1,2043.5c-290.5,674.2-509.3,1355.8-568.8,2042.3"/>
			<path class="st1" d="M2698.7,22.6c408.2,651,718.5,1358.2,695.3,2039.5c-25,691.1-366.3,1384.3-756,2042.7
				c-409.4,691.5-821.5,1353.1-1110.9,2043.4c-282.1,674-493.2,1356-550.6,2042.2"/>
			<path class="st1" d="M2653.7,23.1c407.2,651.2,718.9,1357.9,697.3,2039.5c-23.2,690.8-362,1384.2-747.8,2042.7
				c-404.9,691.4-810.4,1352.7-1092.6,2043.4c-274.8,673.9-479,1356.1-534.7,2042.2"/>
			<path class="st1" d="M2615.6,23.5c406.4,651.4,719,1357.6,699,2039.5c-21.6,690.6-358.6,1383.9-740.9,2042.6
				c-401.3,691.3-801.2,1352.5-1077,2043.4c-268.9,673.8-466.9,1356.4-521.3,2042.3"/>
			<path class="st1" d="M2584.4,23.8c405.7,651.6,719.1,1357.4,700.4,2039.5c-20.4,690.5-355.6,1383.9-735.2,2042.6
				c-398.3,691.2-793.4,1352.3-1064.3,2043.3c-263.8,673.6-457.2,1356.5-510.3,2042.2"/>
			<path class="st1" d="M2560.2,24.1c405.1,651.8,719.3,1357.2,701.4,2039.5c-19.3,690.4-353.3,1383.8-730.8,2042.6
				c-395.8,691.2-787.3,1352.1-1054.3,2043.3c-259.8,673.7-449.6,1356.6-501.8,2042.2"/>
			<path class="st1" d="M2542.9,24.3c404.7,651.9,719.4,1357.1,702.2,2039.5c-18.7,690.3-351.8,1383.8-727.7,2042.6
				c-394.2,691.1-783.1,1352-1047.3,2043.3c-257,673.5-444.3,1356.6-495.7,2042.1"/>
			<path class="st1" d="M2532.5,24.4C2937,676.4,3252,1381.5,3235.1,2063.9c-18.3,690.2-350.7,1383.7-725.8,2042.6
				c-393.3,691-780.6,1352-1043.1,2043.3c-255.4,673.5-440.9,1356.7-492,2042.2"/>
		</g>
		<path class="st1" d="M2529,24.4c404.4,651.9,719.6,1357,702.8,2039.5c-18.1,690.2-350.5,1383.7-725.2,2042.6
			c-392.9,691-779.7,1351.9-1041.7,2043.3c-254.8,673.5-439.9,1356.7-490.8,2042.2"/>
	</g>
	<g class="st2">
		<path class="st3" d="M1386.4,18.9c2.6,1372.5,506.3,2680.4,1236.2,4052.1c687.2,1289,1282.4,2666.5,1292,4051.9"/>
		<path class="st3" d="M1572.3,24.1c-0.8,1370.1,466.9,2680.5,1160,4052.2c653.8,1291.7,1217.4,2667.3,1233.1,4052"/>
		<path class="st3" d="M1750.7,28.9c-4.5,1368,428.8,2680.5,1086.7,4052.4c621.8,1294.4,1155.3,2668.3,1176.9,4052.1"/>
		<path class="st3" d="M1921.4,33.6c-8,1366,392.3,2680.7,1016.4,4052.6c591.1,1296.9,1095.9,2669.1,1123.4,4052.2"/>
		<path class="st3" d="M2084.5,38.1c-11.4,1364.3,357.1,2681,948.9,4052.7c561.5,1299.4,1039.3,2670,1072.5,4052.3"/>
		<path class="st3" d="M2240,42.4c-14.8,1362.8,323.5,2681.2,884.3,4052.8c533.4,1302,985.7,2670.9,1024.3,4052.6"/>
		<path class="st3" d="M2387.9,46.5c-18.2,1361.5,291.3,2681.5,822.8,4053c506.6,1304.1,934.6,2671.4,978.7,4052.5"/>
		<path class="st3" d="M2528.1,50.3c-21.4,1360.3,260.6,2681.9,764.2,4053c481,1306.6,886.3,2672.4,935.5,4052.7"/>
		<path class="st3" d="M2660.9,54c-24.6,1359.3,231.4,2682.2,708.7,4053.2c456.7,1308.5,840.7,2673,894.9,4052.7"/>
		<path class="st3" d="M2785.9,57.5C2758.2,1416,2989.7,2740,3442.2,4110.8C3876,5421.3,4240,6784.5,4299,8163.6"/>
		<path class="st3" d="M2903.3,60.7c-30.6,1357.8,177.6,2683.1,606.9,4053.5c412.2,1312.3,757.6,2674.4,821.1,4052.9"/>
		<path class="st3" d="M3013.3,63.7c-33.5,1357.2,153.1,2683.5,560.6,4053.6c392,1314.1,720.2,2675.1,787.9,4053"/>
		<path class="st3" d="M3115.5,66.6c-36,1356.7,130.2,2683.9,517.5,4053.6c373.1,1315.6,685.3,2675.6,757.1,4053"/>
		<path class="st3" d="M3210.2,69.2c-38.6,1356.3,108.9,2684.3,477.5,4053.7c355.5,1317,653,2676.2,728.6,4053.1"/>
		<path class="st3" d="M3297.3,71.5c-40.8,1356.1,89.3,2684.7,440.5,4053.8c339.4,1318.4,623.5,2676.8,702.6,4053.1"/>
		<path class="st3" d="M3376.9,73.7c-43,1355.8,71.2,2685,406.8,4053.8c324.6,1319.7,596.4,2677.4,678.9,4053.4"/>
		<path class="st3" d="M3448.8,75.7c-45,1355.6,54.9,2685.3,376.2,4054c311.2,1320.6,572.1,2677.8,657.4,4053.2"/>
		<path class="st3" d="M3513.2,77.5c-46.7,1355.4,40.2,2685.7,348.9,4054c299.2,1321.5,550.3,2678.2,638.3,4053.3"/>
		<path class="st3" d="M3570,79c-48.4,1355.3,27.3,2686,324.7,4054.1c288.5,1322.3,531.1,2678.7,621.4,4053.3"/>
		<path class="st3" d="M3619.2,80.4c-49.7,1355.3,16,2686.2,303.7,4054.1c279.4,1323,514.5,2679,606.9,4053.5"/>
		<path class="st3" d="M3660.8,81.5c-51,1355.2,6.5,2686.4,286,4054.1c271.6,1323.6,500.4,2679.4,594.5,4053.5"/>
		<path class="st3" d="M3694.9,82.5c-52,1355.1-1.3,2686.6,271.4,4054.2c265.3,1323.9,489,2679.4,584.6,4053.4"/>
		<path class="st3" d="M3721.4,83.3c-52.7,1355.1-7.4,2686.7,260.1,4054.2c260.2,1324.3,480,2679.6,576.7,4053.4"/>
		<path class="st3" d="M3740.3,83.8c-53.2,1355.1-11.7,2686.9,252,4054.2C4249,5462.6,4466,6817.8,4563.5,8191.5"/>
		<path class="st3" d="M3751.7,84.1c-53.6,1355.1-14.4,2687,247.2,4054.2c254.5,1324.7,469.7,2679.9,567.8,4053.4"/>
	</g>
</g>
</svg>
